<svg xmlns="http://www.w3.org/2000/svg" width="16.45" height="15.824" viewBox="0 0 16.45 15.824">
  <path id="路径_10068" data-name="路径 10068" d="M135.142,142.125h-.435v-9.365a.672.672,0,0,0-.668-.668h-3.267a.156.156,0,0,0-.159.159v9.864H129.9V128.421a.942.942,0,0,0-.933-.933h-7.743a.942.942,0,0,0-.933.933v13.7h-.4a.594.594,0,1,0,0,1.188h15.262a.593.593,0,0,0,.594-.594A.6.6,0,0,0,135.142,142.125Zm-11.847-10.85h3.617a.53.53,0,1,1,0,1.061h-3.617a.525.525,0,0,1-.53-.53A.539.539,0,0,1,123.295,131.274Zm0,2.906h3.617a.53.53,0,1,1,0,1.061h-3.617a.525.525,0,0,1-.53-.53A.532.532,0,0,1,123.295,134.18Zm0,2.927h3.617a.53.53,0,1,1,0,1.061h-3.617a.525.525,0,0,1-.53-.53A.532.532,0,0,1,123.295,137.108Z" transform="translate(-119.296 -127.488)" fill="#333"/>
</svg>
