<svg id="组件_16_1" data-name="组件 16 – 1" xmlns="http://www.w3.org/2000/svg" width="210" height="210" viewBox="0 0 210 210">
  <circle id="椭圆_790" data-name="椭圆 790" cx="105" cy="105" r="105" fill="rgba(56,143,205,0.13)"/>
  <path id="路径_10068" data-name="路径 10068" d="M172.305,91.474l-10.2-10.2a11.3,11.3,0,0,0-15.959,0L88.876,138.587,79.17,171.012,78,174.577l37.475-10.28,56.808-56.808A11.329,11.329,0,0,0,172.305,91.474ZM113.326,161.79l-30.49,8.525.461-1.5,8.548-28.432,3.689-3.689,21.437,21.437Zm5.983-6.085L97.873,134.268,138.812,93.33l21.437,21.437Zm49.666-49.61-6.343,6.343L141.185,91l6.343-6.343c2.609-2.609,4.589-3.723,6.613-3.723s4,1.113,6.613,3.723l8.221,8.221C173.958,97.907,173.947,101.124,168.976,106.1Zm-87.017-.967,15.318,15.318,2.339-2.339-1.046-1.046,10.2-10.2-2.339-2.339L96.22,114.733l-4.3-4.364.529-.517-.124-.124,6.287-6.287L96.276,101.1l-6.512,6.512h-.607l-.214-.214-5.623-5.567L99.886,85.266c2.609-2.609,4.589-3.723,6.613-3.723s4,1.113,6.613,3.723l.27.27,9.5,9.459,2.339-2.339L114.507,81.937a11.3,11.3,0,0,0-15.959,0L78.675,101.787l3.307,3.307Zm79.133,23.427-2.339,2.328,10.223,10.223c2.609,2.609,3.723,4.589,3.723,6.613s-1.114,4-3.723,6.613l-16.544,16.544-6.163-6.163,8.5-8.5-2.339-2.339-8.5,8.5-4.476-4.476,10.2-10.2-2.339-2.339-9.144,9.144.034.034-.574.506-.517.517-.585-.585-.945-.922-2.339,2.339,19.187,19.21,19.873-19.873a11.3,11.3,0,0,0,0-15.959Z" transform="translate(-20.804 -22.18)"/>
</svg>
