<svg xmlns="http://www.w3.org/2000/svg" width="118" height="119" viewBox="0 0 118 119">
  <g id="组_7999" data-name="组 7999" transform="translate(-0.451 0.05)">
    <ellipse id="椭圆_790" data-name="椭圆 790" cx="59" cy="59.5" rx="59" ry="59.5" transform="translate(0.451 -0.05)" fill="rgba(56,143,205,0.13)"/>
    <path id="路径_10068" data-name="路径 10068" d="M135.107,86.149l-6.177-6.177a6.844,6.844,0,0,0-9.664,0l-34.68,34.707-5.878,19.635L78,136.473l22.693-6.225,34.4-34.4A6.861,6.861,0,0,0,135.107,86.149Zm-35.715,42.58-18.464,5.162.279-.906,5.176-17.217,2.234-2.234L101.6,126.516Zm3.623-3.685L90.034,112.064l24.791-24.791,12.981,12.981ZM133.091,95l-3.841,3.841L116.262,85.863l3.841-3.841c1.58-1.58,2.779-2.254,4-2.254s2.425.674,4,2.254L133.091,87C136.108,90.045,136.1,91.993,133.091,95ZM80.4,94.418l9.276,9.276,1.417-1.417-.633-.633,6.177-6.177L95.217,94.05l-6.184,6.184-2.6-2.643.32-.313-.075-.075L90.484,93.4l-1.417-1.417-3.943,3.943h-.368l-.129-.129-3.405-3.371L91.253,82.39c1.58-1.58,2.779-2.254,4-2.254s2.425.674,4,2.254l.163.163,5.755,5.728,1.417-1.417-6.491-6.491a6.844,6.844,0,0,0-9.664,0L78.409,92.395l2,2ZM128.317,108.6l-1.417,1.41,6.191,6.191c1.58,1.58,2.254,2.779,2.254,4s-.674,2.425-2.254,4l-10.018,10.018L119.34,130.5l5.149-5.149-1.417-1.417-5.149,5.149-2.711-2.711,6.177-6.177-1.417-1.417-5.537,5.537.02.02-.347.307-.313.313-.354-.354-.572-.558-1.417,1.417,11.619,11.633,12.034-12.034a6.844,6.844,0,0,0,0-9.664Z" transform="translate(-46.656 -49.976)"/>
  </g>
</svg>
