<?xml version="1.0" standalone="no"?><!DOCTYPE svg PUBLIC "-//W3C//DTD SVG 1.1//EN" "http://www.w3.org/Graphics/SVG/1.1/DTD/svg11.dtd"><svg t="1657247834043" class="icon" viewBox="0 0 1024 1024" version="1.1" xmlns="http://www.w3.org/2000/svg" p-id="5220" width="17" height="17" xmlns:xlink="http://www.w3.org/1999/xlink"><defs><style type="text/css"></style></defs><path d="M501.76 918.186667c3.413333 0 6.826667 3.413333 10.24 3.413333s6.826667 0 10.24-3.413333c13.653333-10.24 348.16-218.453333 348.16-563.2C870.4 160.426667 709.973333 0 512 0S153.6 160.426667 153.6 354.986667c0 348.16 334.506667 556.373333 348.16 563.2zM512 170.666667c102.4 0 187.733333 85.333333 187.733333 187.733333S614.4 546.133333 512 546.133333s-187.733333-85.333333-187.733333-187.733333S409.6 170.666667 512 170.666667z" fill="#333333" p-id="5221"></path><path d="M720.213333 805.546667c-6.826667 0-13.653333 0-17.066666 3.413333-81.92 88.746667-160.426667 136.533333-163.84 136.533333-17.066667 10.24-37.546667 10.24-54.613334 0-3.413333-3.413333-81.92-51.2-163.84-136.533333-3.413333-3.413333-10.24-6.826667-17.066666-3.413333-95.573333 20.48-150.186667 58.026667-150.186667 98.986666C153.6 983.04 334.506667 1024 512 1024s358.4-40.96 358.4-119.466667c0-40.96-54.613333-75.093333-150.186667-98.986666z" fill="#333333" p-id="5222"></path></svg>