<svg xmlns="http://www.w3.org/2000/svg" width="17.327" height="14" viewBox="0 0 17.327 14">
  <path id="office_number" data-name="office number" d="M8.663,11.522A2.166,2.166,0,1,0,6.5,9.356a2.113,2.113,0,0,0,2.166,2.166ZM1.23,13.688C.606,1.923,16.7,1.923,16.079,13.688c0,.312,0,.312-.312.312H1.542c-.312,0-.312,0-.312-.312Zm16.1-10.205C13.307-1.161,4.02-1.161,0,3.483L1.542,5.649l2.79-1.542c.624-.312.624-1.542.624-1.542,1.542-.936,5.874-.936,7.433,0,0,0,0,1.23.624,1.542L15.8,5.649l1.525-2.166Z" fill="#333"/>
</svg>
