<svg xmlns="http://www.w3.org/2000/svg" width="16.098" height="12.331" viewBox="0 0 16.098 12.331">
  <path id="personal_email_contact" data-name="personal email contact" d="M165.432,216.675v7.669a1.374,1.374,0,0,1-1.42,1.321H150.754a1.374,1.374,0,0,1-1.42-1.321v-7.669l5.906,4.657a3.506,3.506,0,0,0,4.287,0Zm-1.42-3.341a1.535,1.535,0,0,1,.507.086,1.413,1.413,0,0,1,.595.4,1.314,1.314,0,0,1,.207.319,1.239,1.239,0,0,1,.109.437l0,.078v.44L158.3,220.75a1.5,1.5,0,0,1-1.773.052l-.071-.053-7.127-5.654v-.44a1.31,1.31,0,0,1,.78-1.179,1.505,1.505,0,0,1,.641-.142Z" transform="translate(-149.333 -213.333)" fill="#333"/>
</svg>
