<svg xmlns="http://www.w3.org/2000/svg" width="119" height="119" viewBox="0 0 119 119">
  <g id="组_7976" data-name="组 7976" transform="translate(0.299 -0.322)">
    <circle id="椭圆_787" data-name="椭圆 787" cx="59.5" cy="59.5" r="59.5" transform="translate(-0.299 0.322)" fill="rgba(56,143,205,0.13)"/>
    <g id="组_8527" data-name="组 8527" transform="translate(-17.433 -476.185)">
      <path id="路径_10063" data-name="路径 10063" d="M176.561,81.2a2.4,2.4,0,0,0-.739-1.746l-.1-.1L166.7,70.6c-.054,0-5.688-5.513-5.742-5.54a2.586,2.586,0,0,0-.376-.329,2.328,2.328,0,0,0-.329-.242,2.069,2.069,0,0,0-.933-.289H124.357a3.331,3.331,0,0,0-3.2,2.606,2.536,2.536,0,0,0-.054.651v53.654a3.239,3.239,0,0,0,2.605,3.156,2.536,2.536,0,0,0,.651.054H172.31a4.266,4.266,0,0,0,4.264-4.264Zm-15.4-12.235a.285.285,0,0,1,.484-.2L172.5,79.182a.284.284,0,0,1-.195.49H162.022a.866.866,0,0,1-.86-.86ZM174.2,120.325a1.634,1.634,0,0,1-1.632,1.632l-47.967.013a1.2,1.2,0,0,1-1.2-1.2V67.531a1.2,1.2,0,0,1,1.2-1.2h33.186a1.209,1.209,0,0,1,1.2,1.2V78.947A2.964,2.964,0,0,0,161.6,81.8a3.149,3.149,0,0,0,.6.054h10.8a1.2,1.2,0,0,1,1.2,1.2Z" transform="translate(-69.232 442.246)"/>
      <path id="路径_10064" data-name="路径 10064" d="M306.012,368.938l3.257-4.882,3.257,4.882h2.532l-4.546-6.534,4.264-6.1h-2.532l-2.975,4.459-2.975-4.459h-2.532l4.231,6.1-4.513,6.534Zm-11.651-5.151h3.277a2.451,2.451,0,0,1,1.632.463,2.173,2.173,0,0,1,.638,1.484l.161,1.558a3.2,3.2,0,0,0,.551,1.645h2.25a3.072,3.072,0,0,1-.759-1.86l-.215-2.035a2.286,2.286,0,0,0-1.86-2.216v-.034a2.744,2.744,0,0,0,1.612-1.115,3,3,0,0,0,.53-1.753,3.375,3.375,0,0,0-1.189-2.76,4.853,4.853,0,0,0-3.062-.866h-5.634v12.645h2.068Zm0-5.721h3.277a2.905,2.905,0,0,1,1.86.463,1.766,1.766,0,0,1,.584,1.484,1.893,1.893,0,0,1-.584,1.484,2.951,2.951,0,0,1-1.86.517h-3.277Zm24.954,17.674H288.029a1.229,1.229,0,1,0,0,2.458h31.286a1.229,1.229,0,0,0,0-2.458Zm-11.04,8.193H288.056a1.068,1.068,0,1,0,0,2.135h20.219a1.068,1.068,0,1,0,0-2.135Z" transform="translate(-223.805 169.761)"/>
    </g>
  </g>
</svg>
