<svg id="组件_14_1" data-name="组件 14 – 1" xmlns="http://www.w3.org/2000/svg" width="210" height="210" viewBox="0 0 210 210">
  <circle id="椭圆_786" data-name="椭圆 786" cx="105" cy="105" r="105" fill="rgba(56,143,205,0.13)"/>
  <g id="组_8527" data-name="组 8527" transform="translate(25.395 -432.507)">
    <path id="联合_2" data-name="联合 2" d="M-3601.437,11697.63a4.41,4.41,0,0,1-1.192-.1,5.927,5.927,0,0,1-4.764-5.777v-98.277a4.741,4.741,0,0,1,.1-1.193,6.089,6.089,0,0,1,5.86-4.77h63.958a3.826,3.826,0,0,1,1.711.523,4.648,4.648,0,0,1,.6.445,4.629,4.629,0,0,1,.69.6c.1.049,10.405,10.146,10.5,10.146l16.5,16.041.187.184a4.375,4.375,0,0,1,1.348,3.2l.027,71.168a7.814,7.814,0,0,1-7.8,7.814Zm-1.749-104.023v97.512a2.2,2.2,0,0,0,2.2,2.205l87.742-.027a2.986,2.986,0,0,0,2.984-2.986l.011-68.268a2.2,2.2,0,0,0-2.2-2.2h-19.763a6.032,6.032,0,0,1-1.107-.094c-2.69-.629-4.764-2.367-4.764-5.232v-20.908a2.213,2.213,0,0,0-2.2-2.2h-60.707A2.2,2.2,0,0,0-3603.186,11593.606Zm69.075,2.635v18.031a1.586,1.586,0,0,0,1.572,1.574h18.816a.522.522,0,0,0,.358-.9l-19.865-19.078a.5.5,0,0,0-.357-.15A.526.526,0,0,0-3534.111,11596.241Zm-50.632,81.721a1.951,1.951,0,0,1-1.957-1.955,1.952,1.952,0,0,1,1.957-1.959h36.981a1.952,1.952,0,0,1,1.957,1.959,1.951,1.951,0,0,1-1.957,1.955Zm-.053-14.418a2.248,2.248,0,0,1-2.246-2.25,2.252,2.252,0,0,1,2.246-2.254h57.23a2.234,2.234,0,0,1,2.246,2.254,2.248,2.248,0,0,1-2.246,2.25Zm7.8-16.947v-23.162h10.3a8.9,8.9,0,0,1,5.6,1.584,6.211,6.211,0,0,1,2.176,5.057,5.493,5.493,0,0,1-.973,3.211,5.037,5.037,0,0,1-2.947,2.045v.059a4.187,4.187,0,0,1,3.4,4.059l.4,3.727a5.617,5.617,0,0,0,1.385,3.406h-4.112a5.8,5.8,0,0,1-1.011-3.01l-.294-2.854a3.958,3.958,0,0,0-1.166-2.719,4.482,4.482,0,0,0-2.984-.852h-5.994v9.449Zm3.786-12.7h5.994a5.388,5.388,0,0,0,3.4-.947,3.466,3.466,0,0,0,1.07-2.719,3.23,3.23,0,0,0-1.07-2.715,5.286,5.286,0,0,0-3.4-.852h-5.994Zm33.228,12.68-5.962-8.941-5.957,8.941h-4.63l8.256-11.967-7.737-11.18h4.63l5.438,8.166,5.443-8.166h4.631l-7.8,11.18,8.32,11.967Z" transform="translate(3636.263 -11106.061)"/>
  </g>
</svg>
