<svg xmlns="http://www.w3.org/2000/svg" width="119" height="119" viewBox="0 0 119 119">
  <g id="组_7985" data-name="组 7985" transform="translate(-277 -46)">
    <circle id="椭圆_786" data-name="椭圆 786" cx="59.5" cy="59.5" r="59.5" transform="translate(277 46)" fill="rgba(56,143,205,0.13)"/>
    <g id="组_8525" data-name="组 8525" transform="translate(290.006 -171.694)">
      <path id="联合_1" data-name="联合 1" d="M53.319,64a14.46,14.46,0,0,1-11.458-5.637H6.694A6.7,6.7,0,0,1,0,51.661V7.727A1.808,1.808,0,0,1,1.812,5.913H17.719V1.024a1.024,1.024,0,1,1,2.048,0V5.913H44.261V1.024a1.024,1.024,0,1,1,2.048,0V5.913h9.572a6.7,6.7,0,0,1,6.695,6.7V38.292A14.541,14.541,0,0,1,53.387,64Zm.983-3.39v1.414A12.343,12.343,0,0,0,62.142,58.4c.155-.161.272-.314.434-.477a12.2,12.2,0,0,0,3.186-7.447H64.344a1.043,1.043,0,0,1-1.02-1.027,1.015,1.015,0,0,1,1.02-1.026h1.418a12.434,12.434,0,0,0-3.224-7.376A13.31,13.31,0,0,0,60.447,39.2a12.45,12.45,0,0,0-6.181-2.246v1.42a1.024,1.024,0,0,1-2.047,0v-1.42A12.552,12.552,0,0,0,40.76,48.426h1.417A1.039,1.039,0,0,1,43.2,49.452a1.02,1.02,0,0,1-1.021,1.027H40.76a12.4,12.4,0,0,0,1.967,5.836A14.584,14.584,0,0,0,44.422,58.4a12.434,12.434,0,0,0,7.833,3.625V60.614a1.024,1.024,0,1,1,2.047,0ZM2.01,50.715a5.592,5.592,0,0,0,5.593,5.6h32.76a14.583,14.583,0,0,1-1.7-6.821v-.042A14.507,14.507,0,0,1,60.41,36.872V13.6a5.594,5.594,0,0,0-5.593-5.6H46.229v3.941a1.024,1.024,0,1,1-2.048,0V8.005H19.693v4.022a1.024,1.024,0,0,1-2.048,0V8.005H2.01Zm48.16-.28a1.041,1.041,0,0,1,0-1.456L55.683,43.5a.936.936,0,0,1,1.417,0,1.05,1.05,0,0,1,0,1.462l-5.47,5.477a1.042,1.042,0,0,1-1.46,0Zm17.64-.983v0ZM26.226,41.959a1.04,1.04,0,0,1-1.021-1.028,1.015,1.015,0,0,1,1.021-1.022h9.69a1.025,1.025,0,1,1,0,2.05ZM9.02,41.917a1.043,1.043,0,0,1-1.026-1.022A1.015,1.015,0,0,1,9.02,39.872h9.689a1.039,1.039,0,0,1,1.022,1.022,1.014,1.014,0,0,1-1.022,1.022Zm32.878-9.5a1.039,1.039,0,0,1-1.021-1.024A1.014,1.014,0,0,1,41.9,30.368h9.689a1.044,1.044,0,0,1,1.027,1.021,1.016,1.016,0,0,1-1.027,1.024Zm-15.628,0a1.023,1.023,0,1,1,0-2.045h9.683a1.044,1.044,0,0,1,1.027,1.021,1.016,1.016,0,0,1-1.027,1.024Zm-17.25,0a1.045,1.045,0,0,1-1.026-1.024A1.015,1.015,0,0,1,9.02,30.368h9.689a1.039,1.039,0,0,1,1.022,1.021,1.016,1.016,0,0,1-1.022,1.024ZM41.9,22.871a1.038,1.038,0,0,1-1.021-1.021A1.021,1.021,0,0,1,41.9,20.817h9.689a1.051,1.051,0,0,1,1.027,1.032,1.016,1.016,0,0,1-1.027,1.021Zm-15.628,0a1.027,1.027,0,1,1,0-2.053h9.683a1.051,1.051,0,0,1,1.027,1.032,1.015,1.015,0,0,1-1.027,1.021Zm-17.25,0A1.044,1.044,0,0,1,7.993,21.85,1.022,1.022,0,0,1,9.02,20.817h9.689A1.046,1.046,0,0,1,19.73,21.85a1.015,1.015,0,0,1-1.022,1.021Z" transform="translate(13.589 245.686)"/>
    </g>
  </g>
</svg>
