<svg id="组件_13_1" data-name="组件 13 – 1" xmlns="http://www.w3.org/2000/svg" width="210" height="210" viewBox="0 0 210 210">
  <path id="路径_10070" data-name="路径 10070" d="M105,0A105,105,0,1,1,0,105,105,105,0,0,1,105,0Z" fill="rgba(56,143,205,0.13)"/>
  <g id="组_8525" data-name="组 8525" transform="translate(38.273 -195.243)">
    <path id="联合_1" data-name="联合 1" d="M89.231,107.112a24.2,24.2,0,0,1-19.176-9.435H11.2A11.205,11.205,0,0,1,0,86.456V12.931A3.025,3.025,0,0,1,3.032,9.9H29.653V1.715a1.714,1.714,0,1,1,3.427,0V9.9H74.072V1.715a1.714,1.714,0,1,1,3.428,0V9.9H93.518a11.207,11.207,0,0,1,11.2,11.218V64.082a24.334,24.334,0,0,1-15.378,43.03Zm1.646-5.673v2.366A20.656,20.656,0,0,0,104,97.739c.26-.27.456-.525.726-.8a20.421,20.421,0,0,0,5.332-12.464h-2.373a1.746,1.746,0,0,1-1.707-1.719,1.7,1.7,0,0,1,1.707-1.717h2.373A20.808,20.808,0,0,0,104.66,68.7a22.268,22.268,0,0,0-3.5-3.1,20.834,20.834,0,0,0-10.344-3.758v2.377a1.713,1.713,0,0,1-3.426,0V61.842a21.006,21.006,0,0,0-19.176,19.2h2.371a1.74,1.74,0,0,1,1.708,1.717,1.706,1.706,0,0,1-1.708,1.719H68.213a20.751,20.751,0,0,0,3.293,9.768,24.372,24.372,0,0,0,2.835,3.493,20.808,20.808,0,0,0,13.11,6.066v-2.366a1.713,1.713,0,1,1,3.426,0ZM3.364,84.872a9.358,9.358,0,0,0,9.36,9.374H67.549A24.409,24.409,0,0,1,64.712,82.83v-.07A24.279,24.279,0,0,1,101.1,61.705V22.763a9.361,9.361,0,0,0-9.36-9.365H77.366v6.6a1.714,1.714,0,1,1-3.428,0V13.4H32.957v6.731a1.714,1.714,0,1,1-3.428,0V13.4H3.364Zm80.6-.468a1.742,1.742,0,0,1,0-2.437l9.226-9.177a1.567,1.567,0,0,1,2.371,0,1.757,1.757,0,0,1,0,2.447L86.4,84.4a1.745,1.745,0,0,1-2.443,0Zm29.52-1.645v0ZM43.89,70.22A1.741,1.741,0,0,1,42.181,68.5a1.7,1.7,0,0,1,1.708-1.71H60.105a1.715,1.715,0,1,1,0,3.431Zm-28.8-.071a1.746,1.746,0,0,1-1.718-1.71,1.7,1.7,0,0,1,1.718-1.712H31.309a1.74,1.74,0,0,1,1.71,1.712,1.7,1.7,0,0,1-1.71,1.71Zm55.023-15.9a1.738,1.738,0,0,1-1.708-1.713,1.7,1.7,0,0,1,1.708-1.71H86.332a1.748,1.748,0,0,1,1.719,1.71,1.7,1.7,0,0,1-1.719,1.713Zm-26.154,0a1.711,1.711,0,1,1,0-3.423h16.2a1.747,1.747,0,0,1,1.718,1.71,1.7,1.7,0,0,1-1.718,1.713Zm-28.869,0a1.748,1.748,0,0,1-1.718-1.713,1.7,1.7,0,0,1,1.718-1.71H31.309a1.74,1.74,0,0,1,1.71,1.71,1.7,1.7,0,0,1-1.71,1.713Zm55.023-15.97a1.737,1.737,0,0,1-1.708-1.708,1.709,1.709,0,0,1,1.708-1.728H86.332a1.759,1.759,0,0,1,1.719,1.728,1.7,1.7,0,0,1-1.719,1.708Zm-26.154,0a1.718,1.718,0,1,1,0-3.436h16.2a1.759,1.759,0,0,1,1.718,1.728,1.7,1.7,0,0,1-1.718,1.708Zm-28.869,0a1.747,1.747,0,0,1-1.718-1.708,1.711,1.711,0,0,1,1.718-1.728H31.309a1.751,1.751,0,0,1,1.71,1.728,1.7,1.7,0,0,1-1.71,1.708Z" transform="translate(13.589 245.686)"/>
  </g>
</svg>
