<svg xmlns="http://www.w3.org/2000/svg" width="119" height="119" viewBox="0 0 119 119">
  <g id="组_7982" data-name="组 7982" transform="translate(0.056 -0.005)">
    <circle id="椭圆_793" data-name="椭圆 793" cx="59.5" cy="59.5" r="59.5" transform="translate(-0.056 0.005)" fill="rgba(56,143,205,0.13)"/>
    <g id="组_8526" data-name="组 8526" transform="translate(-22.16 -780.711)">
      <g id="组_8514" data-name="组 8514" transform="translate(50 808.846)">
        <path id="路径_10066" data-name="路径 10066" d="M75.391,274.292h0c-1.785,0-3.817,2.222-4.212,5.065l-4.887,35.215a3.67,3.67,0,0,0,3.723,4.421h50.839a3.666,3.666,0,0,0,3.723-4.421l-4.887-35.215c-.394-2.836-2.43-5.065-4.212-5.065Zm0-2.292h40.088c3.015,0,5.9,3.158,6.435,7.035l4.887,35.215a5.937,5.937,0,0,1-5.946,7.035H70.015a5.942,5.942,0,0,1-5.946-7.035l4.887-35.215C69.5,275.15,72.375,272,75.391,272Z" transform="translate(-64 -258.416)"/>
        <path id="路径_10067" data-name="路径 10067" d="M304.14,78.106a1.04,1.04,0,0,1-.14-.522,13.584,13.584,0,1,1,27.167,0,1.045,1.045,0,0,1-2.09,0,11.494,11.494,0,1,0-22.988,0,1.04,1.04,0,0,1-.14.522,1.04,1.04,0,0,1,.14.522v9.4a1.045,1.045,0,0,1-2.09,0v-9.4a1.04,1.04,0,0,1,.14-.522Zm24.938,1.567v8.359a1.045,1.045,0,1,0,2.09,0V79.673a1.045,1.045,0,1,0-2.09,0Z" transform="translate(-286.149 -64)"/>
      </g>
      <circle id="椭圆_841" data-name="椭圆 841" cx="2.896" cy="2.896" r="2.896" transform="translate(66.721 838.43)"/>
      <circle id="椭圆_842" data-name="椭圆 842" cx="2.896" cy="2.896" r="2.896" transform="translate(93.894 838.43)"/>
    </g>
  </g>
</svg>
