<svg id="组件_15_1" data-name="组件 15 – 1" xmlns="http://www.w3.org/2000/svg" width="210" height="210" viewBox="0 0 210 210">
  <circle id="椭圆_793" data-name="椭圆 793" cx="105" cy="105" r="105" fill="rgba(56,143,205,0.13)"/>
  <g id="组_8526" data-name="组 8526" transform="translate(23.565 -736.716)">
    <path id="联合_2" data-name="联合 2" d="M-3595.915,11991.584c-6.131,0-10.4-5.066-9.54-11.285l7.841-56.5c.867-6.234,5.487-11.287,10.324-11.287h10.368a21.793,21.793,0,0,1,21.794-21.795,21.791,21.791,0,0,1,21.79,21.795h10.368c4.837,0,9.458,5.068,10.325,11.287l7.84,56.5c.861,6.232-3.408,11.285-9.54,11.285Zm1.868-67.271-7.84,56.5c-.559,4.02,2.041,7.1,5.973,7.1h81.57c3.937,0,6.531-3.066,5.973-7.1l-7.84-56.5c-.636-4.549-3.9-8.127-6.758-8.127h-10.368v13.088a1.677,1.677,0,0,1-1.675,1.676,1.677,1.677,0,0,1-1.675-1.676v-13.088h-36.883v13.088a1.677,1.677,0,0,1-1.675,1.676,1.674,1.674,0,0,1-1.675-1.676v-13.088h-10.368C-3590.153,11916.186-3593.417,11919.752-3594.047,11924.313Zm20.476-11.8h36.883a18.441,18.441,0,0,0-18.439-18.439A18.439,18.439,0,0,0-3573.572,11912.51Zm38.428,30.316a4.648,4.648,0,0,1,4.65-4.643,4.643,4.643,0,0,1,4.645,4.643,4.645,4.645,0,0,1-4.645,4.646A4.65,4.65,0,0,1-3535.144,11942.826Zm-43.593,0a4.643,4.643,0,0,1,4.645-4.643,4.647,4.647,0,0,1,4.649,4.643,4.649,4.649,0,0,1-4.649,4.646A4.645,4.645,0,0,1-3578.736,11942.826Z" transform="translate(3636.565 -11100.869)"/>
  </g>
</svg>
